<svg xmlns="http://www.w3.org/2000/svg" xmlns:xlink="http://www.w3.org/1999/xlink" width="1080" zoomAndPan="magnify" viewBox="0 0 810 809.999993" height="1080" preserveAspectRatio="xMidYMid meet" version="1.0"><defs><g/></defs><g fill="#272727" fill-opacity="1"><g transform="translate(211.026144, 443.819216)"><g><path d="M 64.515625 -33.203125 C 65.097656 -32.710938 65.4375 -32.082031 65.53125 -31.3125 C 65.625 -30.539062 65.382812 -29.863281 64.8125 -29.28125 C 62.007812 -26 58.914062 -22.375 55.53125 -18.40625 C 52.144531 -14.445312 48.832031 -10.582031 45.59375 -6.8125 C 42.351562 -3.039062 39.570312 0.21875 37.25 2.96875 C 34.9375 5.726562 33.394531 7.585938 32.625 8.546875 C 30.976562 10.679688 29.382812 12.757812 27.84375 14.78125 C 29.09375 20.394531 29.207031 25.6875 28.1875 30.65625 C 27.175781 35.632812 25.488281 40.054688 23.125 43.921875 C 20.757812 47.796875 18.269531 50.796875 15.65625 52.921875 C 12.945312 55.242188 10.4375 56.40625 8.125 56.40625 C 6.664062 56.40625 5.457031 55.921875 4.5 54.953125 C 2.851562 53.398438 2.296875 51.101562 2.828125 48.0625 C 3.359375 45.019531 4.585938 41.5625 6.515625 37.6875 C 8.453125 33.820312 10.773438 29.8125 13.484375 25.65625 C 16.191406 21.5 18.945312 17.488281 21.75 13.625 C 21.257812 11.882812 20.578125 10.117188 19.703125 8.328125 C 18.835938 6.546875 17.828125 4.738281 16.671875 2.90625 C 12.710938 -3.09375 9.351562 -8.722656 6.59375 -13.984375 C 3.84375 -19.253906 2.5625 -24.066406 2.75 -28.421875 C 3.238281 -36.441406 6.816406 -42.429688 13.484375 -46.390625 C 16.191406 -48.035156 19.039062 -49.003906 22.03125 -49.296875 C 25.03125 -49.585938 27.785156 -49.148438 30.296875 -47.984375 C 30.972656 -47.597656 31.429688 -47.039062 31.671875 -46.3125 C 31.921875 -45.59375 31.898438 -44.894531 31.609375 -44.21875 C 31.222656 -43.539062 30.664062 -43.082031 29.9375 -42.84375 C 29.21875 -42.601562 28.519531 -42.628906 27.84375 -42.921875 C 24.363281 -44.554688 20.546875 -44.117188 16.390625 -41.609375 C 11.359375 -38.609375 8.695312 -34.113281 8.40625 -28.125 C 8.21875 -24.550781 9.425781 -20.347656 12.03125 -15.515625 C 14.644531 -10.679688 17.738281 -5.609375 21.3125 -0.296875 C 23.144531 2.515625 24.644531 5.367188 25.8125 8.265625 C 26.582031 7.296875 27.398438 6.234375 28.265625 5.078125 C 29.046875 4.109375 30.617188 2.222656 32.984375 -0.578125 C 35.347656 -3.378906 38.125 -6.664062 41.3125 -10.4375 C 44.507812 -14.207031 47.820312 -18.070312 51.25 -22.03125 C 54.6875 -26 57.804688 -29.625 60.609375 -32.90625 C 61.085938 -33.488281 61.710938 -33.828125 62.484375 -33.921875 C 63.253906 -34.023438 63.929688 -33.785156 64.515625 -33.203125 Z M 17.390625 42.625 C 18.066406 41.5625 18.890625 40.039062 19.859375 38.0625 C 20.828125 36.082031 21.671875 33.664062 22.390625 30.8125 C 23.117188 27.957031 23.335938 24.789062 23.046875 21.3125 C 18.609375 27.59375 15.300781 32.8125 13.125 36.96875 C 10.945312 41.125 9.539062 44.289062 8.90625 46.46875 C 8.28125 48.644531 8.066406 50.070312 8.265625 50.75 C 8.941406 50.75 10.148438 50.117188 11.890625 48.859375 C 13.628906 47.597656 15.460938 45.519531 17.390625 42.625 Z M 17.390625 42.625 "/></g></g></g><g fill="#272727" fill-opacity="1"><g transform="translate(285.541253, 443.819216)"><g><path d="M 70.890625 -31.890625 C 71.378906 -31.316406 71.523438 -30.640625 71.328125 -29.859375 C 71.140625 -29.085938 70.753906 -28.507812 70.171875 -28.125 C 63.117188 -23.488281 56.039062 -18.488281 48.9375 -13.125 C 41.832031 -7.757812 34.894531 -1.691406 28.125 5.078125 C 22.425781 39.191406 16.191406 66.882812 9.421875 88.15625 C 7.972656 92.5 6.398438 96.914062 4.703125 101.40625 C 3.015625 105.90625 1.179688 110.113281 -0.796875 114.03125 C -2.773438 117.945312 -4.875 121.234375 -7.09375 123.890625 C -9.320312 126.546875 -11.597656 128.210938 -13.921875 128.890625 C -14.597656 129.085938 -15.320312 129.1875 -16.09375 129.1875 C -18.3125 129.1875 -20.242188 128.21875 -21.890625 126.28125 C -23.921875 123.664062 -25.25 119.703125 -25.875 114.390625 C -26.507812 109.078125 -26.390625 102.84375 -25.515625 95.6875 C -24.648438 88.53125 -22.984375 80.941406 -20.515625 72.921875 C -18.046875 64.898438 -14.734375 56.925781 -10.578125 49 C -5.554688 39.4375 -0.21875 30.835938 5.4375 23.203125 C 11.09375 15.566406 16.960938 8.601562 23.046875 2.3125 C 24.503906 -6.769531 25.957031 -16.289062 27.40625 -26.25 C 26.144531 -24.3125 24.789062 -22.347656 23.34375 -20.359375 C 21.894531 -18.378906 20.445312 -16.519531 19 -14.78125 C 17.0625 -12.46875 15.269531 -10.972656 13.625 -10.296875 C 11.976562 -9.617188 10.578125 -9.375 9.421875 -9.5625 C 8.265625 -9.757812 7.394531 -10.050781 6.8125 -10.4375 C 4.6875 -11.695312 3.238281 -13.941406 2.46875 -17.171875 C 1.695312 -20.410156 1.597656 -24.253906 2.171875 -28.703125 C 2.753906 -33.148438 4.007812 -37.789062 5.9375 -42.625 C 6.226562 -43.300781 6.734375 -43.785156 7.453125 -44.078125 C 8.179688 -44.367188 8.882812 -44.367188 9.5625 -44.078125 C 10.238281 -43.785156 10.742188 -43.300781 11.078125 -42.625 C 11.421875 -41.945312 11.445312 -41.222656 11.15625 -40.453125 C 9.226562 -35.910156 8.046875 -31.828125 7.609375 -28.203125 C 7.171875 -24.578125 7.191406 -21.628906 7.671875 -19.359375 C 8.160156 -17.085938 8.84375 -15.707031 9.71875 -15.21875 C 10.78125 -14.539062 12.421875 -15.554688 14.640625 -18.265625 C 16.578125 -20.585938 18.507812 -23.148438 20.4375 -25.953125 C 22.375 -28.753906 24.140625 -31.4375 25.734375 -34 C 27.328125 -36.5625 28.609375 -38.664062 29.578125 -40.3125 C 30.347656 -41.65625 31.457031 -42.085938 32.90625 -41.609375 C 34.363281 -41.023438 34.992188 -40.007812 34.796875 -38.5625 C 33.148438 -26.476562 31.457031 -15.023438 29.71875 -4.203125 C 35.8125 -9.910156 42 -15.082031 48.28125 -19.71875 C 54.5625 -24.351562 60.84375 -28.703125 67.125 -32.765625 C 67.707031 -33.148438 68.382812 -33.269531 69.15625 -33.125 C 69.925781 -32.976562 70.503906 -32.566406 70.890625 -31.890625 Z M 4.0625 86.5625 C 10.25 67.226562 16 42.53125 21.3125 12.46875 C 16.476562 17.882812 11.789062 23.804688 7.25 30.234375 C 2.707031 36.660156 -1.59375 43.785156 -5.65625 51.609375 C -10 60.023438 -13.332031 68.144531 -15.65625 75.96875 C -17.976562 83.800781 -19.453125 90.953125 -20.078125 97.421875 C -20.703125 103.898438 -20.75 109.335938 -20.21875 113.734375 C -19.6875 118.140625 -18.796875 121.113281 -17.546875 122.65625 C -17.054688 123.238281 -16.640625 123.550781 -16.296875 123.59375 C -15.960938 123.644531 -15.703125 123.625 -15.515625 123.53125 C -15.128906 123.425781 -14.40625 122.960938 -13.34375 122.140625 C -12.28125 121.328125 -10.878906 119.6875 -9.140625 117.21875 C -7.398438 114.75 -5.414062 111.070312 -3.1875 106.1875 C -0.96875 101.3125 1.445312 94.769531 4.0625 86.5625 Z M 4.0625 86.5625 "/></g></g></g><g fill="#272727" fill-opacity="1"><g transform="translate(365.854953, 443.819216)"><g><path d="M 58.421875 -32.328125 C 59.097656 -31.941406 59.535156 -31.382812 59.734375 -30.65625 C 59.929688 -29.9375 59.832031 -29.238281 59.4375 -28.5625 C 54.894531 -20.539062 50.8125 -14.378906 47.1875 -10.078125 C 43.5625 -5.773438 39.863281 -3.863281 36.09375 -4.34375 C 31.269531 -4.925781 27.453125 -10.148438 24.640625 -20.015625 C 23.679688 -23.203125 22.835938 -25.492188 22.109375 -26.890625 C 21.378906 -28.296875 20.796875 -29.164062 20.359375 -29.5 C 19.929688 -29.84375 19.617188 -30.015625 19.421875 -30.015625 C 19.140625 -30.109375 18.5625 -29.816406 17.6875 -29.140625 C 16.820312 -28.460938 15.566406 -26.960938 13.921875 -24.640625 C 12.273438 -22.328125 10.242188 -18.726562 7.828125 -13.84375 C 5.410156 -8.96875 2.460938 -2.273438 -1.015625 6.234375 C -1.492188 7.390625 -2.316406 7.96875 -3.484375 7.96875 C -3.773438 7.96875 -4.015625 7.921875 -4.203125 7.828125 C -5.847656 7.441406 -6.570312 6.425781 -6.375 4.78125 C -5.894531 0.820312 -5.023438 -3.765625 -3.765625 -8.984375 C -2.515625 -14.203125 -1.140625 -19.519531 0.359375 -24.9375 C 1.859375 -30.351562 3.238281 -35.1875 4.5 -39.4375 C 4.78125 -40.40625 5.039062 -41.296875 5.28125 -42.109375 C 5.53125 -42.929688 5.75 -43.734375 5.9375 -44.515625 C 6.226562 -45.285156 6.710938 -45.835938 7.390625 -46.171875 C 8.066406 -46.515625 8.742188 -46.585938 9.421875 -46.390625 C 10.191406 -46.203125 10.769531 -45.769531 11.15625 -45.09375 C 11.550781 -44.414062 11.601562 -43.691406 11.3125 -42.921875 C 11.113281 -42.140625 10.894531 -41.335938 10.65625 -40.515625 C 10.414062 -39.703125 10.148438 -38.8125 9.859375 -37.84375 C 9.179688 -35.332031 8.40625 -32.578125 7.53125 -29.578125 C 6.664062 -26.578125 5.796875 -23.53125 4.921875 -20.4375 C 8.210938 -26.625 11.015625 -30.734375 13.328125 -32.765625 C 15.648438 -34.796875 17.78125 -35.765625 19.71875 -35.671875 C 22.425781 -35.472656 24.550781 -33.972656 26.09375 -31.171875 C 27.644531 -28.367188 28.953125 -25.128906 30.015625 -21.453125 C 31.460938 -16.429688 32.8125 -13.242188 34.0625 -11.890625 C 35.320312 -10.535156 36.242188 -9.859375 36.828125 -9.859375 C 38.078125 -9.660156 39.546875 -10.359375 41.234375 -11.953125 C 42.929688 -13.554688 44.625 -15.585938 46.3125 -18.046875 C 48.007812 -20.515625 49.609375 -22.957031 51.109375 -25.375 C 52.609375 -27.789062 53.742188 -29.769531 54.515625 -31.3125 C 54.898438 -31.988281 55.476562 -32.421875 56.25 -32.609375 C 57.019531 -32.804688 57.742188 -32.710938 58.421875 -32.328125 Z M 58.421875 -32.328125 "/></g></g></g><g fill="#272727" fill-opacity="1"><g transform="translate(433.701637, 443.819216)"><g><path d="M 58.421875 -32.328125 C 59.097656 -31.941406 59.535156 -31.382812 59.734375 -30.65625 C 59.929688 -29.9375 59.832031 -29.238281 59.4375 -28.5625 C 54.894531 -20.539062 50.8125 -14.378906 47.1875 -10.078125 C 43.5625 -5.773438 39.863281 -3.863281 36.09375 -4.34375 C 31.269531 -4.925781 27.453125 -10.148438 24.640625 -20.015625 C 23.679688 -23.203125 22.835938 -25.492188 22.109375 -26.890625 C 21.378906 -28.296875 20.796875 -29.164062 20.359375 -29.5 C 19.929688 -29.84375 19.617188 -30.015625 19.421875 -30.015625 C 19.140625 -30.109375 18.5625 -29.816406 17.6875 -29.140625 C 16.820312 -28.460938 15.566406 -26.960938 13.921875 -24.640625 C 12.273438 -22.328125 10.242188 -18.726562 7.828125 -13.84375 C 5.410156 -8.96875 2.460938 -2.273438 -1.015625 6.234375 C -1.492188 7.390625 -2.316406 7.96875 -3.484375 7.96875 C -3.773438 7.96875 -4.015625 7.921875 -4.203125 7.828125 C -5.847656 7.441406 -6.570312 6.425781 -6.375 4.78125 C -5.894531 0.820312 -5.023438 -3.765625 -3.765625 -8.984375 C -2.515625 -14.203125 -1.140625 -19.519531 0.359375 -24.9375 C 1.859375 -30.351562 3.238281 -35.1875 4.5 -39.4375 C 4.78125 -40.40625 5.039062 -41.296875 5.28125 -42.109375 C 5.53125 -42.929688 5.75 -43.734375 5.9375 -44.515625 C 6.226562 -45.285156 6.710938 -45.835938 7.390625 -46.171875 C 8.066406 -46.515625 8.742188 -46.585938 9.421875 -46.390625 C 10.191406 -46.203125 10.769531 -45.769531 11.15625 -45.09375 C 11.550781 -44.414062 11.601562 -43.691406 11.3125 -42.921875 C 11.113281 -42.140625 10.894531 -41.335938 10.65625 -40.515625 C 10.414062 -39.703125 10.148438 -38.8125 9.859375 -37.84375 C 9.179688 -35.332031 8.40625 -32.578125 7.53125 -29.578125 C 6.664062 -26.578125 5.796875 -23.53125 4.921875 -20.4375 C 8.210938 -26.625 11.015625 -30.734375 13.328125 -32.765625 C 15.648438 -34.796875 17.78125 -35.765625 19.71875 -35.671875 C 22.425781 -35.472656 24.550781 -33.972656 26.09375 -31.171875 C 27.644531 -28.367188 28.953125 -25.128906 30.015625 -21.453125 C 31.460938 -16.429688 32.8125 -13.242188 34.0625 -11.890625 C 35.320312 -10.535156 36.242188 -9.859375 36.828125 -9.859375 C 38.078125 -9.660156 39.546875 -10.359375 41.234375 -11.953125 C 42.929688 -13.554688 44.625 -15.585938 46.3125 -18.046875 C 48.007812 -20.515625 49.609375 -22.957031 51.109375 -25.375 C 52.609375 -27.789062 53.742188 -29.769531 54.515625 -31.3125 C 54.898438 -31.988281 55.476562 -32.421875 56.25 -32.609375 C 57.019531 -32.804688 57.742188 -32.710938 58.421875 -32.328125 Z M 58.421875 -32.328125 "/></g></g></g><g fill="#272727" fill-opacity="1"><g transform="translate(501.54832, 443.819216)"><g><path d="M 49 -32.328125 C 49.675781 -31.941406 50.0625 -31.363281 50.15625 -30.59375 C 50.257812 -29.820312 50.117188 -29.144531 49.734375 -28.5625 C 44.023438 -20.632812 38.800781 -14.082031 34.0625 -8.90625 C 29.332031 -3.738281 24.597656 0.535156 19.859375 3.921875 C 16.285156 6.429688 12.757812 7.6875 9.28125 7.6875 C 6.570312 7.6875 4.203125 6.960938 2.171875 5.515625 C 0.816406 4.546875 -0.507812 2.828125 -1.8125 0.359375 C -3.113281 -2.097656 -3.8125 -5.671875 -3.90625 -10.359375 C -4.007812 -15.046875 -2.851562 -21.210938 -0.4375 -28.859375 C -0.4375 -28.859375 -0.4375 -28.90625 -0.4375 -29 C 2.46875 -38.28125 5.875 -45.359375 9.78125 -50.234375 C 13.695312 -55.117188 17.054688 -57.609375 19.859375 -57.703125 C 22.085938 -57.796875 23.539062 -56.828125 24.21875 -54.796875 C 25.28125 -51.992188 24.019531 -48.007812 20.4375 -42.84375 C 16.863281 -37.675781 11.597656 -32.191406 4.640625 -26.390625 C 2.515625 -19.617188 1.5 -14.320312 1.59375 -10.5 C 1.6875 -6.6875 2.21875 -3.929688 3.1875 -2.234375 C 4.15625 -0.546875 4.929688 0.535156 5.515625 1.015625 C 8.410156 3.140625 12.128906 2.5625 16.671875 -0.71875 C 21.117188 -3.8125 25.613281 -7.847656 30.15625 -12.828125 C 34.695312 -17.804688 39.675781 -24.113281 45.09375 -31.75 C 45.570312 -32.332031 46.195312 -32.695312 46.96875 -32.84375 C 47.75 -32.988281 48.425781 -32.816406 49 -32.328125 Z M 18.84375 -51.609375 C 17.78125 -50.929688 16.332031 -49.503906 14.5 -47.328125 C 12.664062 -45.160156 10.78125 -42 8.84375 -37.84375 C 12.320312 -41.226562 14.785156 -44.101562 16.234375 -46.46875 C 17.679688 -48.832031 18.550781 -50.546875 18.84375 -51.609375 Z M 18.84375 -51.609375 "/></g></g></g><g fill="#272727" fill-opacity="1"><g transform="translate(559.827284, 443.819216)"><g><path d="M 36.96875 -44.359375 C 37.351562 -43.785156 37.445312 -43.109375 37.25 -42.328125 C 37.0625 -41.554688 36.628906 -40.976562 35.953125 -40.59375 C 29.484375 -36.632812 22.09375 -29.046875 13.78125 -17.828125 C 15.414062 -14.160156 17.222656 -10.898438 19.203125 -8.046875 C 21.191406 -5.191406 23.054688 -3.476562 24.796875 -2.90625 C 25.085938 -2.800781 25.519531 -2.796875 26.09375 -2.890625 C 26.675781 -2.992188 27.351562 -3.625 28.125 -4.78125 C 28.507812 -5.457031 29.085938 -5.867188 29.859375 -6.015625 C 30.640625 -6.160156 31.367188 -5.992188 32.046875 -5.515625 C 32.617188 -5.117188 32.976562 -4.535156 33.125 -3.765625 C 33.269531 -2.992188 33.148438 -2.316406 32.765625 -1.734375 C 31.609375 0.0976562 30.375 1.300781 29.0625 1.875 C 27.757812 2.457031 26.578125 2.75 25.515625 2.75 C 24.742188 2.75 23.972656 2.65625 23.203125 2.46875 C 20.878906 1.695312 18.582031 -0.0859375 16.3125 -2.890625 C 14.039062 -5.703125 11.988281 -8.941406 10.15625 -12.609375 C 4.351562 -4.296875 -1.492188 5.316406 -7.390625 16.234375 C -7.972656 17.203125 -8.796875 17.6875 -9.859375 17.6875 C -10.335938 17.6875 -10.769531 17.539062 -11.15625 17.25 C -11.832031 16.957031 -12.289062 16.425781 -12.53125 15.65625 C -12.78125 14.882812 -12.710938 14.160156 -12.328125 13.484375 C -9.617188 8.453125 -6.570312 3.160156 -3.1875 -2.390625 C 0.195312 -7.953125 3.722656 -13.34375 7.390625 -18.5625 C 5.554688 -22.71875 4.109375 -26.75 3.046875 -30.65625 C 1.984375 -34.570312 1.5 -37.546875 1.59375 -39.578125 C 1.59375 -40.347656 1.878906 -41 2.453125 -41.53125 C 3.035156 -42.0625 3.71875 -42.28125 4.5 -42.1875 C 5.269531 -42.1875 5.921875 -41.894531 6.453125 -41.3125 C 6.984375 -40.738281 7.25 -40.066406 7.25 -39.296875 C 7.15625 -37.835938 7.46875 -35.679688 8.1875 -32.828125 C 8.914062 -29.984375 9.90625 -26.96875 11.15625 -23.78125 C 14.738281 -28.414062 18.390625 -32.617188 22.109375 -36.390625 C 25.828125 -40.160156 29.476562 -43.15625 33.0625 -45.375 C 33.738281 -45.757812 34.460938 -45.851562 35.234375 -45.65625 C 36.003906 -45.46875 36.582031 -45.035156 36.96875 -44.359375 Z M 36.96875 -44.359375 "/></g></g></g></svg>