<svg xmlns="http://www.w3.org/2000/svg" xmlns:xlink="http://www.w3.org/1999/xlink" width="1080" zoomAndPan="magnify" viewBox="0 0 810 809.999993" height="1080" preserveAspectRatio="xMidYMid meet" version="1.0"><path fill="#272727" d="M 278.5 412.480469 C 279.0625 412.953125 279.390625 413.558594 279.480469 414.300781 C 279.570312 415.042969 279.335938 415.695312 278.789062 416.253906 C 276.085938 419.414062 273.109375 422.90625 269.851562 426.726562 C 266.589844 430.542969 263.398438 434.261719 260.28125 437.890625 C 257.160156 441.527344 254.480469 444.664062 252.246094 447.3125 C 250.019531 449.96875 248.53125 451.757812 247.792969 452.683594 C 246.203125 454.738281 244.671875 456.738281 243.1875 458.6875 C 244.390625 464.089844 244.5 469.1875 243.519531 473.972656 C 242.542969 478.765625 240.917969 483.023438 238.644531 486.746094 C 236.363281 490.480469 233.96875 493.367188 231.453125 495.414062 C 228.839844 497.648438 226.425781 498.769531 224.199219 498.769531 C 222.792969 498.769531 221.628906 498.304688 220.707031 497.371094 C 219.121094 495.875 218.585938 493.660156 219.097656 490.734375 C 219.609375 487.804688 220.792969 484.476562 222.648438 480.742188 C 224.515625 477.019531 226.75 473.160156 229.359375 469.160156 C 231.96875 465.15625 234.617188 461.292969 237.320312 457.574219 C 236.847656 455.894531 236.191406 454.195312 235.347656 452.472656 C 234.515625 450.757812 233.542969 449.015625 232.429688 447.25 C 228.617188 441.472656 225.378906 436.054688 222.726562 430.984375 C 220.078125 425.910156 218.84375 421.277344 219.023438 417.082031 C 219.492188 409.359375 222.9375 403.59375 229.359375 399.78125 C 231.96875 398.195312 234.710938 397.261719 237.589844 396.980469 C 240.480469 396.703125 243.132812 397.125 245.550781 398.246094 C 246.199219 398.617188 246.640625 399.15625 246.875 399.855469 C 247.113281 400.546875 247.09375 401.222656 246.8125 401.871094 C 246.441406 402.527344 245.902344 402.964844 245.203125 403.195312 C 244.511719 403.429688 243.839844 403.402344 243.1875 403.121094 C 239.835938 401.546875 236.160156 401.96875 232.160156 404.382812 C 227.3125 407.273438 224.75 411.601562 224.46875 417.367188 C 224.289062 420.8125 225.453125 424.859375 227.960938 429.511719 C 230.476562 434.167969 233.457031 439.050781 236.898438 444.167969 C 238.664062 446.875 240.105469 449.621094 241.230469 452.410156 C 241.972656 451.480469 242.757812 450.457031 243.59375 449.34375 C 244.347656 448.410156 245.859375 446.59375 248.136719 443.894531 C 250.414062 441.199219 253.089844 438.035156 256.15625 434.402344 C 259.234375 430.773438 262.425781 427.050781 265.726562 423.238281 C 269.039062 419.414062 272.039062 415.925781 274.738281 412.765625 C 275.199219 412.203125 275.800781 411.878906 276.546875 411.785156 C 277.285156 411.6875 277.9375 411.917969 278.5 412.480469 Z M 233.121094 485.5 C 233.773438 484.476562 234.566406 483.007812 235.5 481.105469 C 236.433594 479.199219 237.246094 476.871094 237.9375 474.125 C 238.636719 471.375 238.847656 468.324219 238.570312 464.976562 C 234.296875 471.023438 231.109375 476.050781 229.015625 480.050781 C 226.914062 484.054688 225.5625 487.101562 224.953125 489.199219 C 224.351562 491.296875 224.144531 492.667969 224.335938 493.324219 C 224.984375 493.324219 226.148438 492.714844 227.824219 491.503906 C 229.5 490.289062 231.265625 488.285156 233.121094 485.5 Z M 233.121094 485.5 " fill-opacity="1" fill-rule="nonzero"/><path fill="#272727" d="M 356.394531 413.742188 C 356.867188 414.296875 357.003906 414.945312 356.816406 415.699219 C 356.636719 416.445312 356.265625 417 355.703125 417.367188 C 348.910156 421.835938 342.09375 426.648438 335.253906 431.8125 C 328.414062 436.980469 321.734375 442.824219 315.214844 449.34375 C 309.726562 482.191406 303.722656 508.859375 297.203125 529.34375 C 295.808594 533.527344 294.292969 537.777344 292.660156 542.101562 C 291.035156 546.4375 289.265625 550.488281 287.363281 554.261719 C 285.460938 558.03125 283.4375 561.195312 281.300781 563.753906 C 279.15625 566.3125 276.960938 567.914062 274.722656 568.570312 C 274.074219 568.757812 273.378906 568.855469 272.632812 568.855469 C 270.496094 568.855469 268.636719 567.921875 267.050781 566.054688 C 265.09375 563.535156 263.816406 559.722656 263.214844 554.605469 C 262.605469 549.492188 262.71875 543.488281 263.558594 536.597656 C 264.394531 529.703125 265.996094 522.394531 268.375 514.671875 C 270.753906 506.945312 273.941406 499.269531 277.945312 491.636719 C 282.78125 482.429688 287.921875 474.144531 293.367188 466.796875 C 298.8125 459.441406 304.464844 452.734375 310.324219 446.679688 C 311.726562 437.933594 313.125 428.765625 314.523438 419.175781 C 313.308594 421.039062 312 422.933594 310.609375 424.847656 C 309.214844 426.753906 307.820312 428.542969 306.425781 430.21875 C 304.5625 432.445312 302.835938 433.886719 301.25 434.535156 C 299.664062 435.191406 298.316406 435.425781 297.203125 435.242188 C 296.089844 435.054688 295.25 434.773438 294.691406 434.402344 C 292.644531 433.191406 291.25 431.027344 290.507812 427.917969 C 289.761719 424.796875 289.667969 421.097656 290.222656 416.8125 C 290.78125 412.53125 291.988281 408.0625 293.847656 403.40625 C 294.125 402.753906 294.617188 402.289062 295.308594 402.007812 C 296.007812 401.730469 296.683594 401.730469 297.339844 402.007812 C 297.988281 402.289062 298.476562 402.753906 298.796875 403.40625 C 299.128906 404.0625 299.152344 404.757812 298.875 405.496094 C 297.015625 409.871094 295.878906 413.804688 295.457031 417.292969 C 295.035156 420.785156 295.054688 423.625 295.519531 425.808594 C 295.988281 428 296.648438 429.328125 297.488281 429.796875 C 298.511719 430.453125 300.09375 429.472656 302.230469 426.863281 C 304.09375 424.628906 305.953125 422.160156 307.8125 419.460938 C 309.675781 416.761719 311.378906 414.179688 312.910156 411.710938 C 314.445312 409.246094 315.679688 407.21875 316.613281 405.632812 C 317.355469 404.339844 318.421875 403.925781 319.816406 404.382812 C 321.222656 404.949219 321.828125 405.925781 321.640625 407.316406 C 320.050781 418.957031 318.421875 429.984375 316.75 440.40625 C 322.617188 434.910156 328.574219 429.929688 334.625 425.464844 C 340.671875 421.003906 346.722656 416.8125 352.769531 412.902344 C 353.328125 412.53125 353.980469 412.414062 354.726562 412.554688 C 355.464844 412.695312 356.023438 413.09375 356.394531 413.742188 Z M 292.042969 527.808594 C 298 509.1875 303.539062 485.410156 308.652344 456.460938 C 303.996094 461.671875 299.484375 467.375 295.113281 473.566406 C 290.738281 479.753906 286.597656 486.617188 282.683594 494.148438 C 278.5 502.253906 275.292969 510.074219 273.054688 517.609375 C 270.820312 525.148438 269.398438 532.035156 268.796875 538.265625 C 268.195312 544.503906 268.148438 549.738281 268.660156 553.972656 C 269.171875 558.21875 270.03125 561.078125 271.234375 562.566406 C 271.707031 563.125 272.105469 563.425781 272.4375 563.46875 C 272.761719 563.515625 273.007812 563.5 273.191406 563.410156 C 273.5625 563.308594 274.257812 562.859375 275.28125 562.070312 C 276.304688 561.285156 277.65625 559.707031 279.328125 557.328125 C 281.007812 554.953125 282.917969 551.410156 285.0625 546.707031 C 287.199219 542.011719 289.523438 535.710938 292.042969 527.808594 Z M 292.042969 527.808594 " fill-opacity="1" fill-rule="nonzero"/><path fill="#272727" d="M 421.726562 413.320312 C 422.378906 413.695312 422.800781 414.230469 422.992188 414.929688 C 423.179688 415.625 423.085938 416.296875 422.707031 416.949219 C 418.332031 424.675781 414.402344 430.605469 410.910156 434.746094 C 407.417969 438.894531 403.855469 440.730469 400.226562 440.269531 C 395.582031 439.710938 391.90625 434.679688 389.199219 425.179688 C 388.273438 422.109375 387.460938 419.90625 386.761719 418.558594 C 386.058594 417.203125 385.496094 416.367188 385.074219 416.046875 C 384.660156 415.714844 384.359375 415.546875 384.171875 415.546875 C 383.902344 415.457031 383.34375 415.742188 382.503906 416.390625 C 381.667969 417.046875 380.460938 418.488281 378.875 420.722656 C 377.289062 422.953125 375.332031 426.417969 373.007812 431.121094 C 370.679688 435.816406 367.839844 442.261719 364.492188 450.457031 C 364.03125 451.570312 363.238281 452.125 362.113281 452.125 C 361.835938 452.125 361.601562 452.082031 361.421875 451.992188 C 359.839844 451.617188 359.144531 450.640625 359.332031 449.054688 C 359.792969 445.242188 360.632812 440.828125 361.84375 435.800781 C 363.046875 430.773438 364.371094 425.65625 365.816406 420.4375 C 367.261719 415.226562 368.589844 410.566406 369.804688 406.476562 C 370.074219 405.542969 370.324219 404.683594 370.554688 403.902344 C 370.796875 403.113281 371.007812 402.339844 371.1875 401.585938 C 371.464844 400.84375 371.933594 400.3125 372.585938 399.992188 C 373.238281 399.660156 373.886719 399.59375 374.542969 399.78125 C 375.285156 399.960938 375.839844 400.378906 376.214844 401.027344 C 376.59375 401.683594 376.640625 402.378906 376.363281 403.121094 C 376.171875 403.871094 375.960938 404.648438 375.730469 405.4375 C 375.5 406.21875 375.242188 407.078125 374.964844 408.011719 C 374.308594 410.429688 373.566406 413.082031 372.722656 415.96875 C 371.886719 418.859375 371.050781 421.792969 370.210938 424.773438 C 373.375 418.8125 376.078125 414.855469 378.304688 412.902344 C 380.539062 410.945312 382.59375 410.011719 384.457031 410.101562 C 387.066406 410.292969 389.113281 411.738281 390.597656 414.433594 C 392.089844 417.136719 393.351562 420.253906 394.375 423.792969 C 395.765625 428.632812 397.066406 431.699219 398.269531 433.003906 C 399.480469 434.308594 400.371094 434.957031 400.933594 434.957031 C 402.136719 435.148438 403.550781 434.476562 405.175781 432.941406 C 406.808594 431.398438 408.441406 429.445312 410.066406 427.074219 C 411.699219 424.695312 413.242188 422.34375 414.6875 420.015625 C 416.132812 417.691406 417.222656 415.785156 417.964844 414.300781 C 418.335938 413.648438 418.890625 413.230469 419.636719 413.050781 C 420.378906 412.863281 421.074219 412.953125 421.726562 413.320312 Z M 421.726562 413.320312 " fill-opacity="1" fill-rule="nonzero"/><path fill="#272727" d="M 487.0625 413.320312 C 487.714844 413.695312 488.132812 414.230469 488.328125 414.929688 C 488.515625 415.625 488.421875 416.296875 488.039062 416.949219 C 483.664062 424.675781 479.734375 430.605469 476.242188 434.746094 C 472.753906 438.894531 469.191406 440.730469 465.5625 440.269531 C 460.914062 439.710938 457.242188 434.679688 454.53125 425.179688 C 453.605469 422.109375 452.792969 419.90625 452.09375 418.558594 C 451.390625 417.203125 450.832031 416.367188 450.410156 416.046875 C 449.996094 415.714844 449.695312 415.546875 449.507812 415.546875 C 449.234375 415.457031 448.679688 415.742188 447.835938 416.390625 C 447 417.046875 445.792969 418.488281 444.210938 420.722656 C 442.625 422.953125 440.667969 426.417969 438.34375 431.121094 C 436.015625 435.816406 433.175781 442.261719 429.828125 450.457031 C 429.367188 451.570312 428.574219 452.125 427.449219 452.125 C 427.171875 452.125 426.9375 452.082031 426.757812 451.992188 C 425.171875 451.617188 424.476562 450.640625 424.664062 449.054688 C 425.128906 445.242188 425.96875 440.828125 427.179688 435.800781 C 428.382812 430.773438 429.707031 425.65625 431.148438 420.4375 C 432.59375 415.226562 433.921875 410.566406 435.136719 406.476562 C 435.410156 405.542969 435.65625 404.683594 435.890625 403.902344 C 436.128906 403.113281 436.339844 402.339844 436.523438 401.585938 C 436.800781 400.84375 437.265625 400.3125 437.921875 399.992188 C 438.570312 399.660156 439.222656 399.59375 439.878906 399.78125 C 440.617188 399.960938 441.175781 400.378906 441.546875 401.027344 C 441.925781 401.683594 441.976562 402.378906 441.699219 403.121094 C 441.507812 403.871094 441.296875 404.648438 441.066406 405.4375 C 440.832031 406.21875 440.578125 407.078125 440.296875 408.011719 C 439.644531 410.429688 438.898438 413.082031 438.054688 415.96875 C 437.222656 418.859375 436.386719 421.792969 435.542969 424.773438 C 438.710938 418.8125 441.410156 414.855469 443.640625 412.902344 C 445.875 410.945312 447.925781 410.011719 449.792969 410.101562 C 452.398438 410.292969 454.445312 411.738281 455.929688 414.433594 C 457.425781 417.136719 458.683594 420.253906 459.707031 423.792969 C 461.101562 428.632812 462.402344 431.699219 463.605469 433.003906 C 464.816406 434.308594 465.703125 434.957031 466.269531 434.957031 C 467.472656 435.148438 468.886719 434.476562 470.511719 432.941406 C 472.144531 431.398438 473.777344 429.445312 475.402344 427.074219 C 477.035156 424.695312 478.578125 422.34375 480.019531 420.015625 C 481.464844 417.691406 482.554688 415.785156 483.300781 414.300781 C 483.667969 413.648438 484.226562 413.230469 484.972656 413.050781 C 485.710938 412.863281 486.40625 412.953125 487.0625 413.320312 Z M 487.0625 413.320312 " fill-opacity="1" fill-rule="nonzero"/><path fill="#272727" d="M 543.324219 413.320312 C 543.972656 413.695312 544.347656 414.25 544.4375 414.992188 C 544.535156 415.738281 544.398438 416.386719 544.03125 416.949219 C 538.53125 424.582031 533.5 430.890625 528.9375 435.875 C 524.382812 440.851562 519.824219 444.96875 515.261719 448.230469 C 511.820312 450.644531 508.421875 451.855469 505.074219 451.855469 C 502.464844 451.855469 500.183594 451.15625 498.230469 449.765625 C 496.921875 448.832031 495.648438 447.175781 494.390625 444.796875 C 493.140625 442.433594 492.464844 438.992188 492.375 434.476562 C 492.277344 429.960938 493.390625 424.027344 495.714844 416.660156 C 495.714844 416.660156 495.714844 416.617188 495.714844 416.527344 C 498.515625 407.589844 501.792969 400.773438 505.554688 396.078125 C 509.324219 391.375 512.558594 388.976562 515.261719 388.886719 C 517.40625 388.796875 518.804688 389.730469 519.460938 391.683594 C 520.480469 394.386719 519.265625 398.222656 515.816406 403.195312 C 512.375 408.171875 507.304688 413.453125 500.605469 419.039062 C 498.558594 425.5625 497.582031 430.664062 497.671875 434.339844 C 497.761719 438.011719 498.273438 440.667969 499.207031 442.300781 C 500.140625 443.925781 500.882812 444.96875 501.449219 445.429688 C 504.234375 447.476562 507.816406 446.921875 512.191406 443.761719 C 516.472656 440.78125 520.800781 436.894531 525.175781 432.097656 C 529.546875 427.308594 534.34375 421.230469 539.5625 413.878906 C 540.019531 413.316406 540.621094 412.96875 541.367188 412.824219 C 542.117188 412.6875 542.769531 412.851562 543.324219 413.320312 Z M 514.285156 394.753906 C 513.261719 395.410156 511.863281 396.78125 510.101562 398.878906 C 508.332031 400.964844 506.519531 404.007812 504.652344 408.011719 C 508 404.753906 510.375 401.984375 511.769531 399.703125 C 513.164062 397.429688 514 395.777344 514.285156 394.753906 Z M 514.285156 394.753906 " fill-opacity="1" fill-rule="nonzero"/><path fill="#272727" d="M 587.859375 401.734375 C 588.226562 402.289062 588.316406 402.941406 588.128906 403.691406 C 587.949219 404.4375 587.53125 404.992188 586.878906 405.363281 C 580.648438 409.175781 573.535156 416.480469 565.527344 427.285156 C 567.101562 430.816406 568.84375 433.957031 570.75 436.703125 C 572.664062 439.453125 574.457031 441.105469 576.136719 441.652344 C 576.414062 441.753906 576.832031 441.757812 577.386719 441.667969 C 577.945312 441.570312 578.597656 440.960938 579.339844 439.847656 C 579.710938 439.199219 580.265625 438.800781 581.011719 438.660156 C 581.765625 438.519531 582.464844 438.683594 583.117188 439.140625 C 583.667969 439.523438 584.011719 440.085938 584.15625 440.828125 C 584.296875 441.570312 584.179688 442.222656 583.808594 442.78125 C 582.695312 444.546875 581.507812 445.703125 580.242188 446.257812 C 578.988281 446.820312 577.851562 447.101562 576.828125 447.101562 C 576.082031 447.101562 575.34375 447.011719 574.601562 446.828125 C 572.363281 446.085938 570.152344 444.371094 567.964844 441.667969 C 565.777344 438.960938 563.800781 435.84375 562.039062 432.308594 C 556.449219 440.316406 550.820312 449.570312 545.140625 460.085938 C 544.582031 461.019531 543.785156 461.484375 542.765625 461.484375 C 542.304688 461.484375 541.886719 461.34375 541.515625 461.0625 C 540.863281 460.78125 540.425781 460.269531 540.191406 459.527344 C 539.949219 458.785156 540.019531 458.089844 540.386719 457.4375 C 542.996094 452.59375 545.929688 447.496094 549.1875 442.148438 C 552.445312 436.792969 555.84375 431.601562 559.375 426.578125 C 557.605469 422.574219 556.214844 418.691406 555.191406 414.929688 C 554.167969 411.164062 553.703125 408.296875 553.792969 406.339844 C 553.792969 405.597656 554.066406 404.972656 554.621094 404.460938 C 555.179688 403.949219 555.839844 403.738281 556.589844 403.828125 C 557.332031 403.828125 557.960938 404.109375 558.472656 404.671875 C 558.984375 405.222656 559.238281 405.871094 559.238281 406.609375 C 559.148438 408.019531 559.449219 410.09375 560.140625 412.839844 C 560.84375 415.578125 561.796875 418.484375 563 421.550781 C 566.449219 417.089844 569.96875 413.042969 573.546875 409.410156 C 577.128906 405.78125 580.644531 402.894531 584.097656 400.757812 C 584.746094 400.390625 585.441406 400.300781 586.1875 400.488281 C 586.929688 400.667969 587.484375 401.085938 587.859375 401.734375 Z M 587.859375 401.734375 " fill-opacity="1" fill-rule="nonzero"/></svg>