<?xml version="1.0" encoding="iso-8859-1"?>
<!-- Generator: Adobe Illustrator 25.2.1, SVG Export Plug-In . SVG Version: 6.00 Build 0)  -->
<svg fill="#4D4D4D" version="1.1" id="Layer_1" xmlns="http://www.w3.org/2000/svg" xmlns:xlink="http://www.w3.org/1999/xlink" x="0px" y="0px"
	 viewBox="0 0 64 64" style="enable-background:new 0 0 64 64;" xml:space="preserve">
<path d="M50.971,18.586L42.109,8.043C41.021,6.748,39.416,6,37.724,6H11v52h42V24.154C53,22.117,52.281,20.145,50.971,18.586z
	 M15,54V10c0,0,15.696,0,21.696,0C39.986,10,41,11.366,41,12.581C41,14.366,39,17,39,17c9.761,4.62,9.816,4.618,9.816,8.185
	C48.816,30.185,49,54,49,54H15z"/>
<rect x="22" y="34" width="20" height="4"/>
<rect x="22" y="26" width="20" height="4"/>
<rect x="22" y="42" width="13" height="4"/>
</svg>